<svg xmlns="http://www.w3.org/2000/svg" viewBox="0 0 1566.85 1794.06"><g fill="#fff" id="Layer_2" data-name="Layer 2"><g id="Layer_1-2" data-name="Layer 1"><path d="M1566.47,1111.55c0,68.5-.62,137,.37,205.49.3,20.94-7.87,35.36-24.51,45.74-28.53,17.8-57.11,35.57-86.27,52.28-65.9,37.76-132.27,74.68-198.26,112.28-49.35,28.11-98.41,56.73-147.58,85.16-61.85,35.75-123.48,71.9-185.6,107.17q-59.94,34-121.13,65.83c-22,11.4-15.65,11.4-36.5.07q-90.21-49-179.62-99.5c-48.92-27.49-97.52-55.56-146.17-83.55q-93.75-53.94-187.34-108.14-65.33-37.74-130.65-75.49-53-30.65-105.88-61.4c-7.83-4.54-11.21-12-12.06-20.27-1.8-17.71-3.82-35.47-4.09-53.23Q-.08,1201.52,0,1119c.1-84.48.77-169,1.12-253.45q.36-86.25.49-172.49.21-109,.28-218c0-3.33-.11-6.67-.21-10-.2-7,1.51-13.63,7-18,11.12-9,22.08-18.41,34.29-25.69q84.95-50.64,170.59-100.11c46.8-27.17,93.87-53.86,140.82-80.77q64.36-36.88,128.71-73.79,75.84-43.52,151.63-87.08Q698.57,42.88,762.38,6a44.07,44.07,0,0,1,54.15,7.67,34.84,34.84,0,0,1,9.63,21.52c1.67,18,3.61,36.16,3.7,54.26.26,51-.34,102-.65,153-.44,72.65-1.64,145.31-1,218,.21,23.05-8.07,39.16-26.9,50.75-23.39,14.39-46.65,29.05-70.49,42.67-51.48,29.4-103.34,58.13-155,87.3-37.7,21.31-75.21,42.93-112.88,64.29-3.58,2-5.18,4.38-5.18,8.66q.17,182.74,0,365.48c0,4.17,1.31,6.71,5,8.81q78.87,45.26,157.62,90.72,87,50.18,174,100.39,96.54,55.66,193.08,111.3,59.08,34.1,118.09,68.3c4.19,2.42,5.08,1.94,5.15-3,.09-6,0-12,0-18q0-147.75.13-295.49c0-5.41-1.75-8.54-6.33-11.09-41.46-23.1-82.8-46.42-124.27-69.5-52.69-29.32-105.58-58.26-158.15-87.79-20.91-11.75-41.3-24.53-59.21-40.67a94.33,94.33,0,0,1-16.36-18.67c-8.93-13.91-7.6-27,2.53-40.25,10.51-13.7,23.83-24.39,38.31-33.26,31.94-19.56,64.06-38.87,96.72-57.2,56.06-31.45,112.66-62,168.9-93.1q39.55-21.9,78.55-44.78c14-8.26,27.91-7.51,41.56-.95,19.94,9.58,39.8,19.47,58.93,30.56,51.57,29.91,102.67,60.63,154.07,90.83q78,45.81,156.19,91.17c17.08,9.87,24.36,24.21,24.28,43.67C1566.3,971.55,1566.47,1041.55,1566.47,1111.55Zm-369.42,74v267.63c0,1,0,2,0,3,.21,4.91,1.07,5.46,5.25,3.09,6.52-3.7,13-7.49,19.47-11.23l209.4-120.77c5.31-3.07,5.36-4.14.1-7.17q-38.47-22.24-77-44.43-71.61-41.27-143.22-82.51C1207,1190.75,1202.76,1188.59,1197.05,1185.51Zm.62-150.88c3.17-1.57,5.28-2.46,7.25-3.6q34.38-19.86,68.75-39.79,79-45.54,158-91c4.71-2.72,4.73-3.94,0-6.65-8.66-5-17.37-9.89-26-14.88L1204.09,762.3c-6.15-3.55-7-3.09-7,3.87q0,130,0,260C1197.08,1028.58,1197.41,1031,1197.67,1034.63ZM458.43,1185.45c-.23,4-.49,6.42-.49,8.84q0,129.7,0,259.4c0,1,0,2,0,3,.24,4.48,1.09,4.94,5.1,2.64q21.87-12.57,43.72-25.18l185.08-107c5.34-3.09,5.41-4,.06-7.09q-38-22-76.08-44-67.07-38.68-134.17-77.31C474.35,1194.52,467,1190.36,458.43,1185.45ZM458.61,608c2.83-1.44,4.61-2.25,6.3-3.22Q516.36,575,567.79,545.26q62.06-35.85,124.13-71.68c5.33-3.08,5.28-3.95-.14-7.07q-60.15-34.68-120.28-69.35-53.41-30.84-106.77-61.77c-6.28-3.63-6.8-3.35-6.8,3.85q0,131,0,261.91C458,603.06,458.31,605,458.61,608ZM1479.76,972.7c-2.54,1.14-4.1,1.69-5.51,2.5q-47.16,27.19-94.28,54.43l-102.92,59.45c-10.52,6.08-21.07,12.12-31.54,18.29-3.92,2.32-3.86,3.52-.16,5.91.7.45,1.44.84,2.16,1.26q48.87,28.21,97.76,56.43,64.24,37,128.55,74c6,3.42,6.7,3,6.7-3.76q0-130.95,0-261.88A65.39,65.39,0,0,0,1479.76,972.7ZM371.89,897.16V859.67q0-47,0-94c0-6.67-1-7.16-6.8-3.77-8.49,4.93-17,9.88-25.48,14.78Q238.35,835.1,137.08,893.47c-4.63,2.67-4.67,4.07-.08,6.74q28.29,16.44,56.61,32.81,71.38,41.19,142.81,82.32c9.66,5.57,19.31,11.18,29,16.75,5.44,3.13,6.4,2.53,6.49-3.95,0-1.34,0-2.67,0-4Zm0-427.3q0-65.48,0-131c0-6.54-.76-7.06-6.32-3.9q-25,14.19-49.8,28.59-89.34,51.56-178.64,103.18c-1.32.77-2.26,2.19-3.38,3.31,1.11,1.1,2,2.51,3.36,3.27q43,24.95,86,49.76l116.33,67.28c8.93,5.17,17.85,10.36,26.85,15.43,4.2,2.37,5.3,1.7,5.54-3,.08-1.5,0-3,0-4.5Zm0,853.71q0-65.49,0-131c0-6.77-.88-7.26-6.7-3.92q-27.71,15.94-55.39,31.91-86.54,49.94-173,99.89c-4.09,2.36-4.15,3.88-.15,6.19q41.5,24,83,48,61.64,35.6,123.29,71.17,11.9,6.87,23.88,13.57c3.89,2.19,4.81,1.64,5.06-2.87.08-1.49,0-3,0-4.5ZM88.78,821.77c5.49-3.11,9.78-5.51,14-7.95Q149.6,786.94,196.36,760q42.85-24.69,85.63-49.51c13.7-7.92,27.44-15.76,41.1-23.74,4.69-2.74,4.58-3.9-.18-6.64-2-1.17-4.08-2.26-6.1-3.43q-42.57-24.66-85.14-49.34-48.45-28-97-55.88c-13.85-8-27.75-15.89-41.57-23.94-3.53-2.06-4.88-1.08-4.81,2.77,0,.83,0,1.66,0,2.5q0,130.74,0,261.47C88.34,816.25,88.56,818.19,88.78,821.77Zm-.46,288.44q0,65.73,0,131.48c0,6.25.78,6.71,6.06,3.67q49.36-28.41,98.72-56.85Q258,1151.1,323,1113.67c4.81-2.77,4.88-3.75.07-6.56-14.24-8.31-28.56-16.48-42.83-24.72L95.47,975.68c-6.4-3.69-7.15-3.28-7.15,4Zm740.11,564.45c2.89-1.58,4.63-2.49,6.33-3.48q27.24-15.72,54.48-31.45,86.58-49.82,173.17-99.59c4.13-2.37,4.14-3.69,0-6.08-10.08-5.84-20.19-11.62-30.28-17.45q-99.5-57.42-199-114.83c-1.23-.71-2.58-1.22-4.71-2.22ZM1110.73,897V767.5c0-1.66.35-3.5-.25-4.93a4,4,0,0,0-3.33-1.86c-1.35.11-2.61,1.35-3.91,2.1q-52.74,30.48-105.5,61Q937.4,858.61,877,893.4c-5.4,3.12-5.38,3.87,0,7q34.16,19.76,68.33,39.48l121.53,70.21q19.24,11.11,38.49,22.24c4.21,2.42,5.13,1.89,5.3-2.93.06-1.49,0-3,0-4.49ZM740.31,394.13V119.07c-2,1-3.24,1.53-4.36,2.17q-31.17,18-62.31,35.93l-167,96.36c-4.55,2.62-4.61,3.57-.08,6.19Q539,278.49,571.4,297.2,653.18,344.39,735,391.56C736.49,392.43,738.12,393.08,740.31,394.13Zm-.48,1280.35c2.17-7.23,1.55-271-.55-274.52-1.85,1-3.79,1.85-5.62,2.91q-51.49,29.7-103,59.43-62.28,36-124.55,72c-3.83,2.21-3.79,3.48.13,5.75q50.61,29.22,101.25,58.4,55.38,31.92,110.81,63.78C725.33,1666.22,732.36,1670.21,739.83,1674.48Z"/></g></g></svg>